<?xml version="1.0" encoding="UTF-8" standalone="no"?>
<svg width="60px" height="60px" viewBox="0 0 60 60" version="1.1" xmlns="http://www.w3.org/2000/svg" xmlns:xlink="http://www.w3.org/1999/xlink" xmlns:sketch="http://www.bohemiancoding.com/sketch/ns">
    <!-- Generator: Sketch 3.2.2 (9983) - http://www.bohemiancoding.com/sketch -->
    <title>Phonerepair</title>
    <desc>Created with Sketch.</desc>
    <defs></defs>
    <g id="stroked" stroke="none" stroke-width="1" fill="none" fill-rule="evenodd" sketch:type="MSPage">
        <g id="Tech" sketch:type="MSLayerGroup" transform="translate(-718.000000, -369.000000)" stroke="#fa7470" stroke-width="2">
            <g id="Phonerepair" transform="translate(729.000000, 373.000000)" sketch:type="MSShapeGroup">
                <g id="Rectangle-328-+-Rectangle-357-+-Oval-416">
                    <path d="M29,35.7781076 L29,43.9760933 L0,43.9760933 L0,2.003834 C0,0.897147041 0.899712682,0 1.99328744,0 L27.0067126,0 C28.1075748,0 29,0.891083474 29,2.00829176 L29,10.1189948" id="Rectangle-328"></path>
                    <rect id="Rectangle-357" x="0" y="44" width="29" height="10"></rect>
                    <circle id="Oval-415" cx="15" cy="49" r="2"></circle>
                </g>
                <path d="M23.4852202,31.3432069 L22.6339209,32.1945062 C21.8540421,32.974385 20.5941058,32.9788821 19.8076118,32.1923882 C19.0265633,31.4113396 19.0262439,30.145329 19.8054938,29.3660791 L20.6567931,28.5147798 C19.9616145,27.4651688 19.4592027,26.2767493 19.2000362,25 L17.9970047,25 C16.8940894,25 16,24.1122704 16,23 C16,21.8954305 16.8949789,21 17.9970047,21 L19.2000362,21 C19.4592027,19.7232507 19.9616145,18.5348312 20.6567931,17.4852202 L19.8054938,16.6339209 C19.025615,15.8540421 19.0211179,14.5941058 19.8076118,13.8076118 C20.5886604,13.0265633 21.854671,13.0262439 22.6339209,13.8054938 L23.4852202,14.6567931 C24.5348312,13.9616145 25.7232507,13.4592027 27,13.2000362 L27,11.9970047 C27,10.8940894 27.8877296,10 29,10 C30.1045695,10 31,10.8949789 31,11.9970047 L31,13.2000362 C32.2767493,13.4592027 33.4651688,13.9616145 34.5147798,14.6567931 L35.3660791,13.8054938 C36.1459579,13.025615 37.4058942,13.0211179 38.1923882,13.8076118 C38.9734367,14.5886604 38.9737561,15.854671 38.1945062,16.6339209 L37.3432069,17.4852202 C38.0383855,18.5348312 38.5407973,19.7232507 38.7999638,21 L40.0029953,21 C41.1059106,21 42,21.8877296 42,23 C42,24.1045695 41.1050211,25 40.0029953,25 L38.7999638,25 C38.5407973,26.2767493 38.0383855,27.4651688 37.3432069,28.5147798 L38.1945062,29.3660791 C38.974385,30.1459579 38.9788821,31.4058942 38.1923882,32.1923882 C37.4113396,32.9734367 36.145329,32.9737561 35.3660791,32.1945062 L34.5147798,31.3432069 C33.4651688,32.0383855 32.2767493,32.5407973 31,32.7999638 L31,34.0029953 C31,35.1059106 30.1122704,36 29,36 C27.8954305,36 27,35.1050211 27,34.0029953 L27,32.7999638 C25.7232507,32.5407973 24.5348312,32.0383855 23.4852202,31.3432069 L23.4852202,31.3432069 Z M29,26 C30.6568542,26 32,24.6568542 32,23 C32,21.3431458 30.6568542,20 29,20 C27.3431458,20 26,21.3431458 26,23 C26,24.6568542 27.3431458,26 29,26 Z" id="Rectangle-349" stroke-linecap="round" stroke-linejoin="round"></path>
            </g>
        </g>
    </g>
</svg>