<?xml version="1.0" encoding="UTF-8" standalone="no"?>
<svg width="60px" height="60px" viewBox="0 0 60 60" version="1.1" xmlns="http://www.w3.org/2000/svg" xmlns:xlink="http://www.w3.org/1999/xlink" xmlns:sketch="http://www.bohemiancoding.com/sketch/ns">
    <!-- Generator: Sketch 3.2.2 (9983) - http://www.bohemiancoding.com/sketch -->
    <title>TabletFI</title>
    <desc>Created with Sketch.</desc>
    <defs></defs>
    <g id="stroked" stroke="none" stroke-width="1" fill="none" fill-rule="evenodd" sketch:type="MSPage">
        <g id="Tech" sketch:type="MSLayerGroup" transform="translate(2.000000, -729.000000)" stroke-linecap="round" stroke="#a7e0a5" stroke-width="2">
            <g id="TabletFI" transform="translate(1.000000, 727.000000)" sketch:type="MSShapeGroup">
                <rect id="Rectangle-418" x="0" y="20" width="54" height="38" rx="2"></rect>
                <rect id="Rectangle-419" x="4" y="24" width="46" height="28"></rect>
                <path d="M21.5,55 L32.5,55" id="Line" stroke-linejoin="round"></path>
                <path d="M25.5,28 L45,28" id="Line" stroke-linejoin="round"></path>
                <path d="M25.5,33 L45,33" id="Line" stroke-linejoin="round"></path>
                <path d="M25.5,38 L45,38" id="Line" stroke-linejoin="round"></path>
                <path d="M25.5,43 L45,43" id="Line" stroke-linejoin="round"></path>
                <path d="M33,20 C33,14.4771525 28.5228475,10 23,10" id="Oval-472" stroke-linejoin="round" transform="translate(28.000000, 15.000000) rotate(-45.000000) translate(-28.000000, -15.000000) "></path>
                <path d="M36,20 C36,11.163444 28.836556,4 20,4" id="Oval-471" stroke-linejoin="round" transform="translate(28.000000, 12.000000) rotate(-45.000000) translate(-28.000000, -12.000000) "></path>
                <rect id="Rectangle-420" stroke-linejoin="round" x="9" y="28" width="12" height="20"></rect>
            </g>
        </g>
    </g>
</svg>