<?xml version="1.0" encoding="iso-8859-1"?>
<!DOCTYPE svg PUBLIC "-//W3C//DTD SVG 1.1//EN" "http://www.w3.org/Graphics/SVG/1.1/DTD/svg11.dtd">
<svg 
 version="1.1" xmlns="http://www.w3.org/2000/svg" xmlns:xlink="http://www.w3.org/1999/xlink" x="0px" y="0px" width="512px"
	 height="512px" viewBox="0 0 512 512" enable-background="new 0 0 512 512" xml:space="preserve"
><g id="b75708d097f2188dff6617b0f00d68fa"><g></g><g fill="#ffffff"><path display="inline" d="M248.983,133.261c2.196-3.8,4.827-6.067,7.037-6.067c2.202,0,4.829,2.262,6.966,5.944l0.434,0.793
		l21.246,36.755l-38.339,22.135l140.148,9.045l62.244-125.899l-39.723,22.937l-37.471-62.451
		c-9.877-16.473-32.666-29.375-51.877-29.375H192.392c-3.38,0-7.14,0.501-10.926,1.421c-1.755,0.232-3.183,0.606-4.08,0.933
		c-15.31,4.584-29.764,15.169-36.87,27.019l-46.723,77.875l124.589,71.938L248.983,133.261z M118.052,108.044l37.53-62.557
		c5.116-8.538,17.171-16.756,28.786-19.661c0.172-0.012,0.357-0.018,0.555-0.018c3.52,0,12.971,1.981,24.686,20.351
		c8.941,14.015,27.084,43.713,39.74,64.521c-6.096,1.981-11.486,6.712-15.575,13.797l-21.818,37.782L118.052,108.044z
		 M305.357,179.026l3.363-1.944l-3.02-5.096c-0.67-1.123-66.866-112.685-81.275-135.277c-2.902-4.544-5.925-8.573-9.053-12.064
		h104.275c12.953,0,30.156,9.739,36.813,20.846l46.357,77.263l4.438-2.563l-31.338,63.386L305.357,179.026z M504.17,257.516
		l-49.756-82.924l-125.621,72.527l36.744,63.643c2.191,3.798,2.842,7.206,1.744,9.122c-0.902,1.55-3.459,2.607-6.68,2.876
		c-1.771,0.034-31.986,0.114-51.875,0.172v-51.716L230.826,388.07l77.901,116.854v-49.508h78.006
		c19.209,0,41.998-12.902,51.875-29.372l62.943-104.908c2.732-3.437,4.037-6.582,4.625-8.424
		C513.971,296.099,513.125,272.462,504.17,257.516z M448.238,198.445l40.867,68.109c6.188,10.316,6.566,27.988,0.848,39.381
		l-0.504,1.08c-0.115,0.246-0.217,0.498-0.344,0.715l-1.99,3.317c-2.984,3.196-10.488,8.275-28.332,9.064
		c-16.178,0.715-50.027,1.562-73.842,2.11c1.281-6.233-0.125-13.217-4.191-20.245l-27.961-48.425L448.238,198.445z M386.732,437.848
		h-95.574v9.053l-39.224-58.83l39.224-58.831v11.353l5.93-0.08c5.674-0.074,139.135-1.818,162.486-2.849
		c4.369-0.194,8.498-0.629,12.363-1.304l-48.393,80.648C416.881,428.108,399.68,437.848,386.732,437.848z M151.024,322.714
		c-3.157-0.371-5.439-1.406-6.259-2.824c-1.104-1.922-0.455-5.33,1.738-9.128l27.848-48.23l38.654,22.318L150.767,158.95
		L10.62,167.995L48.47,189.85L7.872,257.519c-9.202,15.339-9.859,39.381-1.576,56.091c0.606,1.647,1.713,4.016,3.674,6.663
		l63.463,105.771c9.876,16.47,32.664,29.372,51.876,29.372h95.574V322.943l-64.758,0.028
		C156.125,322.972,153.944,322.749,151.024,322.714z M52.562,337.606c20.437,0.903,124.618,2.447,150.753,2.825v97.416h-78.006
		c-12.947,0-30.15-9.739-36.813-20.84l-48.442-80.739C43.958,336.966,48.133,337.406,52.562,337.606z M22.935,266.555l49.794-82.984
		l-3.083-1.781l70.557-4.55l31.342,63.38l-3.617-2.09l-36.635,63.448c-4.052,7-5.467,13.96-4.206,20.182
		c-23.768-0.543-57.564-1.39-73.743-2.11c-18.306-0.812-25.749-6.073-28.634-9.367l-1.927-3.288
		c-0.052-0.108-0.103-0.224-0.155-0.338l-1.138-5.124l-1.027,0.148C16.519,290.849,17.414,275.762,22.935,266.555z"></path></g></g></svg>