<?xml version="1.0" encoding="UTF-8" standalone="no"?>
<svg width="60px" height="60px" viewBox="0 0 60 60" version="1.1" xmlns="http://www.w3.org/2000/svg" xmlns:xlink="http://www.w3.org/1999/xlink" xmlns:sketch="http://www.bohemiancoding.com/sketch/ns">
    <!-- Generator: Sketch 3.2.2 (9983) - http://www.bohemiancoding.com/sketch -->
    <title>Applebrand</title>
    <desc>Created with Sketch.</desc>
    <defs></defs>
    <g id="stroked" stroke="none" stroke-width="1" fill="none" fill-rule="evenodd" sketch:type="MSPage">
        <g id="Brands" sketch:type="MSLayerGroup" transform="translate(-117.000000, -116.000000)" stroke="#fcb9b8" stroke-width="2">
            <g id="Apple" transform="translate(127.000000, 121.000000)" sketch:type="MSShapeGroup">
                <path d="M32.0370452,27.8479872 C32.0370452,32.4351643 35.0533984,36.275214 39.1939232,37.6140108 L39.2020442,37.7242237 C36.5952189,44.8138139 31.386209,49.2292909 31.386209,49.2292909 C28.5647586,52.1945982 24.4416358,49.3731478 24.4416358,49.3731478 C21.1851344,47.0586768 16.19423,49.3012194 16.19423,49.3012194 C12.359981,51.979973 9.60929889,49.2304511 9.60929889,49.2304511 C5.34115909,46.1178066 1.57883852,37.2184045 1.57883852,37.2184045 C-3.77518843,20.5762557 7.07672233,15.1503003 7.07672233,15.1503003 C12.359981,11.603765 19.5945882,16.5981498 19.5945882,16.5981498 C32.1867027,8.98649851 37.6996683,18.2803468 37.8829697,18.5959038 C34.4338858,20.2618589 32.0370452,23.7619887 32.0370452,27.8479872 L32.0370452,27.8479872 Z M19.3033941,12.107264 C19.9553904,1.4722986 29.3606118,0.4595 29.3606118,0.4595 C29.9383594,11.3844993 19.3033941,12.107264 19.3033941,12.107264 L19.3033941,12.107264 Z" id="Shape"></path>
            </g>
        </g>
    </g>
</svg>